#!OML:ASF Z:\Project 1\Capture day 1\Session 1\Male1.ASF
:FULLY-SPECIFIED
:DEGREES
1432
root 24.7274 16.4862 -5.99792 -161.51 37.8492 -176.651
lowerback -0.401929 -2.77679 0.764778
upperback 0.847247 -3.69009 2.94103
thorax 1.23958 -1.83156 2.53098
lowerneck -12.3393 -3.16505 0.758563
upperneck -5.68383 -3.77205 5.51417
head 0.373911 -1.61568 1.44865
rclavicle -3.63279e-014 -3.37934e-015
rhumerus 79.541 -10.4028 -42.931
rradius 52.5485
rwrist 28.4939
rhand -47.6134 72.926
rfingers 7.12502
rthumb -20.2969 43.9666
lclavicle -3.63279e-014 -3.37934e-015
lhumerus 88.8807 4.61751 50.0304
lradius 41.6131
lwrist -31.024
lhand -36.2267 -293.088
lfingers 7.12502
lthumb -9.32852 -816.685
rfemur -25.2187 -5.37208 28.0631
rtibia 22.4311
rfoot -14.1433 -1.80774
rtoes -0.392902
lfemur 13.7736 -2.71739 -10.5111
ltibia 1.27222e-014
lfoot 12.6665 5.08313
ltoes 42.4184
1433
root 24.7299 16.4826 -5.99961 -161.626 37.8652 -176.565
lowerback -0.653983 -2.86065 0.79636
upperback 0.966152 -3.81166 2.95777
thorax 1.50688 -1.89244 2.51128
lowerneck -13.2163 -3.12827 0.375494
upperneck -5.1575 -3.71544 5.66131
head 0.701747 -1.55272 1.55443
rclavicle 3.11098e-014 2.62396e-014
rhumerus 80.2721 -10.2103 -42.8905
rradius 51.3898
rwrist 28.3246
rhand -48.7496 70.8031
rfingers 7.12502
rthumb -21.3886 41.9637
lclavicle 3.11098e-014 2.62396e-014
lhumerus 89.0312 4.5084 50.4325
lradius 40.5519
lwrist -31.5032
lhand -36.3298 -293.87
lfingers 7.12502
lthumb -9.42801 -815.9
rfemur -25.0392 -5.5457 28.1599
rtibia 22.4609
rfoot -14.3502 -1.63051
rtoes -0.93764
lfemur 13.9693 -2.72284 -10.4628
ltibia 6.36111e-015
lfoot 12.8617 4.89634
ltoes 41.7538
1434
root 24.7307 16.4801 -6.00002 -161.777 37.9067 -176.523
lowerback -0.718149 -2.85232 0.667502
upperback 0.806171 -3.79935 2.92259
thorax 1.3841 -1.88827 2.5485
lowerneck -13.1649 -3.04914 0.718974
upperneck -4.70971 -3.70447 5.52459
head 0.825304 -1.55722 1.45051
rclavicle 7.95139e-016 -4.35338e-014
rhumerus 80.6176 -10.2371 -43.7711
rradius 50.5142
rwrist 25.9495
rhand -46.0044 72
rfingers 7.12502
rthumb -18.75 42.8836
lclavicle 7.95139e-016 -4.35338e-014
lhumerus 88.8947 4.44376 49.3207
lradius 39.5701
lwrist -30.5205
lhand -36.4644 -293.955
lfingers 7.12502
lthumb -9.55793 -815.809
rfemur -24.8602 -5.39938 28.1357
rtibia 22.5284
rfoot -14.4227 -1.74645
rtoes -1.1388
lfemur 14.1767 -2.71748 -10.4533
ltibia -5.08889e-014
lfoot 13.057 4.75295
ltoes 41.2292
1435
root 24.7297 16.4782 -6.0006 -162.049 38.0405 -176.652
lowerback -0.698365 -2.85355 0.41862
upperback 0.69352 -3.79751 2.9077
thorax 1.27258 -1.89037 2.67637
lowerneck -13.4784 -3.09288 0.612258
upperneck -4.24262 -3.79485 5.57403
head 1.03726 -1.5914 1.47641
rclavicle -2.30093e-014 3.20043e-014
rhumerus 81.8491 -10.5056 -45.6194
rradius 49.5936
rwrist 20.8478
rhand -38.2506 76.2747
rfingers 7.12502
rthumb -11.281 46.5981
lclavicle -2.30093e-014 3.20043e-014
lhumerus 88.816 4.44207 48.8458
lradius 38.617
lwrist -30.061
lhand -36.8617 -294.94
lfingers 7.12502
lthumb -9.94121 -814.805
rfemur -24.6808 -5.24964 27.9461
rtibia 22.599
rfoot -14.4249 -1.87728
rtoes -0.990658
lfemur 14.3871 -2.66384 -10.6285
ltibia 2.22639e-014
lfoot 13.2249 4.59381
ltoes 40.6789
1436
root 24.7269 16.4757 -6.00083 -162.286 38.1801 -176.765
lowerback -0.838018 -2.87989 0.175379
upperback 0.692263 -3.83456 2.91842
thorax 1.36809 -1.91249 2.81466
lowerneck -13.8778 -3.09741 0.469514
upperneck -4.02528 -3.79849 5.63798
head 1.18274 -1.57814 1.5181
rclavicle 4.44284e-014 -4.57205e-014
rhumerus 82.2926 -9.8494 -45.7337
rradius 48.3904
rwrist 21.3219
rhand -41.3421 72.4403
rfingers 7.12502
rthumb -14.2613 42.95
lclavicle 4.44284e-014 -4.57205e-014
lhumerus 88.8955 4.32385 49.1724
lradius 37.5262
lwrist -30.5536
lhand -37.6695 -296.42
lfingers 7.12502
lthumb -10.7205 -813.287
rfemur -24.5312 -5.2081 27.7954
rtibia 22.6563
rfoot -14.4087 -1.87799
rtoes -1.18732
lfemur 14.5604 -2.59486 -10.7933
ltibia -3.18055e-015
lfoot 13.3933 4.47699
ltoes 40.5522
1437
root 24.7237 16.4734 -5.99886 -162.432 38.2284 -176.655
lowerback -0.963912 -2.89909 0.0608104
upperback 0.677398 -3.86121 2.95176
thorax 1.43471 -1.92745 2.90581
lowerneck -14.0402 -3.0228 0.681124
upperneck -3.80279 -3.75135 5.33745
head 1.26835 -1.56128 1.38501
rclavicle -2.4202e-014 -3.01159e-014
rhumerus 82.0456 -9.80678 -45.0157
rradius 47.9162
rwrist 20.7411
rhand -43.8335 68.1359
rfingers 7.12502
rthumb -16.6609 38.8309
lclavicle -2.4202e-014 -3.01159e-014
lhumerus 89.0642 4.08245 49.415
lradius 36.4022
lwrist -31.1566
lhand -36.9491 -295.654
lfingers 7.12502
lthumb -10.0256 -814.087
rfemur -24.3143 -5.13631 27.8508
rtibia 22.7009
rfoot -14.2408 -1.83903
rtoes 0.0279246
lfemur 14.7848 -2.57336 -10.7272
ltibia -1.90833e-014
lfoot 13.4692 4.47788
ltoes 40.942
1438
root 24.7204 16.4721 -5.99583 -162.652 38.315 -176.562
lowerback -0.960315 -2.86758 -0.0449162
upperback 0.633339 -3.81744 2.94338
thorax 1.3916 -1.90652 2.9589
lowerneck -14.5263 -2.8662 0.573201
upperneck -3.29876 -3.57015 5.60026
head 1.52602 -1.44561 1.49546
rclavicle -3.97072e-014 -5.14852e-014
rhumerus 82.1616 -9.69911 -45.3999
rradius 46.3063
rwrist 20.8645
rhand -45.283 66.0935
rfingers 7.12502
rthumb -18.0559 36.9115
lclavicle -3.97072e-014 -5.14852e-014
lhumerus 89.2226 3.69005 49.5455
lradius 35.2529
lwrist -31.9931
lhand -37.0154 -296.312
lfingers 7.12502
lthumb -10.0895 -813.426
rfemur -24.0106 -5.08566 27.8859
rtibia 22.6987
rfoot -14.1526 -1.76702
rtoes 0.735119
lfemur 15.1071 -2.5335 -10.6778
ltibia 1.27222e-014
lfoot 13.4449 4.56358
ltoes 41.2619
1439
root 24.7176 16.4724 -5.99262 -162.914 38.4115 -176.598
lowerback -0.989786 -2.84838 -0.131364
upperback 0.578457 -3.79188 2.86657
thorax 1.35075 -1.89481 2.92887
lowerneck -14.7172 -2.81985 0.732969
upperneck -3.11913 -3.54739 5.55772
head 1.61344 -1.43001 1.4538
rclavicle -2.3556e-014 1.0138e-014
rhumerus 82.3997 -9.20508 -45.3667
rradius 45.3216
rwrist 20.8954
rhand -45.7786 64.2868
rfingers 7.12502
rthumb -18.5327 35.1496
lclavicle -2.3556e-014 1.0138e-014
lhumerus 89.1711 3.4267 48.8875
lradius 34.2212
lwrist -32.4783
lhand -37.0887 -294.073
lfingers 7.12502
lthumb -10.1602 -815.662
rfemur -23.7128 -4.95566 27.7882
rtibia 22.634
rfoot -14.1305 -1.86399
rtoes 0.427993
lfemur 15.362 -2.50236 -10.7498
ltibia 1.90833e-014
lfoot 13.5324 4.57075
ltoes 41.1682
1440
root 24.7169 16.4737 -5.98877 -163.086 38.3953 -176.551
lowerback -1.13164 -2.85003 -0.111591
upperback 0.544445 -3.79733 2.77478
thorax 1.38796 -1.89789 2.81673
lowerneck -15.0817 -2.78086 0.867959
upperneck -2.64558 -3.56144 5.47679
head 1.83133 -1.42891 1.40054
rclavicle 1.32763e-013 -3.27995e-014
rhumerus 82.2496 -9.00536 -45.3169
rradius 44.4478
rwrist 20.8401
rhand -45.6669 63.9829
rfingers 7.12502
rthumb -18.4252 34.8355
lclavicle 1.32763e-013 -3.27995e-014
lhumerus 89.2452 3.12737 48.4459
lradius 33.3083
lwrist -32.4085
lhand -36.7008 -294.252
lfingers 7.12502
lthumb -9.78599 -815.5
rfemur -23.4377 -4.73438 27.7704
rtibia 22.5531
rfoot -14.0129 -2.14223
rtoes 0.206101
lfemur 15.5378 -2.55394 -10.7142
ltibia -6.36111e-014
lfoot 13.6867 4.46113
ltoes 40.7491
1441
root 24.7142 16.4728 -5.98571 -163.163 38.3317 -176.436
lowerback -1.42383 -2.90485 -0.138338
upperback 0.614673 -3.87559 2.83197
thorax 1.63374 -1.9388 2.87022
lowerneck -15.7904 -2.72167 0.606949
upperneck -2.08048 -3.49341 5.49731
head 2.15561 -1.3728 1.45415
rclavicle 1.05927e-013 2.0773e-014
rhumerus 82.7031 -8.59354 -45.3196
rradius 43.1607
rwrist 21.3571
rhand -44.7232 63.778
rfingers 7.12502
rthumb -17.5173 34.5472
lclavicle 1.05927e-013 2.0773e-014
lhumerus 89.5221 2.81769 48.9616
lradius 32.0225
lwrist -33.4149
lhand -36.6764 -292.691
lfingers 7.12502
lthumb -9.7624 -817.063
rfemur -23.2555 -4.80299 27.8886
rtibia 22.4774
rfoot -13.9759 -2.19034
rtoes -0.484029
lfemur 15.6892 -2.63554 -10.5733
ltibia 3.18055e-015
lfoot 13.6769 4.61368
ltoes 41.4777
1442
root 24.7119 16.4698 -5.9814 -163.229 38.2582 -176.33
lowerback -1.73107 -3.09722 -0.244222
upperback 0.682723 -4.13583 2.99672
thorax 1.90975 -2.07189 3.07015
lowerneck -16.1675 -2.53163 0.590294
upperneck -1.96242 -3.2418 5.23338
head 2.25094 -1.24886 1.38599
rclavicle -5.93621e-014 2.51463e-014
rhumerus 83.3279 -7.91663 -45.2525
rradius 42.1077
rwrist 21.5344
rhand -44.3254 63.2694
rfingers 7.12502
rthumb -17.1345 34.0049
lclavicle -5.93621e-014 2.51463e-014
lhumerus 89.5389 2.87004 49.8533
lradius 30.7554
lwrist -34.6107
lhand -36.5886 -293.93
lfingers 7.12502
lthumb -9.67775 -815.827
rfemur -23.1053 -4.85879 27.9936
rtibia 22.4202
rfoot -13.9369 -2.19355
rtoes -0.874318
lfemur 15.8203 -2.7283 -10.4276
ltibia 3.81667e-014
lfoot 13.6702 4.83271
ltoes 42.6876
1443
root 24.7118 16.4668 -5.97465 -163.41 38.2297 -176.219
lowerback -1.8747 -3.23993 -0.333695
upperback 0.719245 -4.32735 3.08317
thorax 2.05246 -2.16998 3.1916
lowerneck -16.1467 -2.59535 0.0592981
upperneck -1.96529 -3.24575 5.7151
head 2.27303 -1.23118 1.64007
rclavicle -6.8854e-014 3.67752e-015
rhumerus 83.9087 -7.13527 -45.8346
rradius 40.5564
rwrist 21.9674
rhand -44.3474 63.3854
rfingers 7.12502
rthumb -17.1556 34.1228
lclavicle -6.8854e-014 3.67752e-015
lhumerus 89.9423 2.21674 50.9142
lradius 29.234
lwrist -35.9826
lhand -36.4218 -294.186
lfingers 7.12502
lthumb -9.51678 -815.579
rfemur -22.8125 -4.56593 28.0108
rtibia 22.3977
rfoot -13.8093 -2.4529
rtoes -0.331902
lfemur 16.0377 -2.78751 -10.3387
ltibia -3.18055e-015
lfoot 13.8396 4.65727
ltoes 42.1886
